{"title":"Weekend.2011.720p.BluRay.x264.AC3-HDChina","uid":7162501,"size":4695199987,"categoryP":"video","categoryS":"hd___movies","magnet":"?xt=urn:btih:0c0eb503a07ddef4bff9547b5f700af3b962957d&amp;dn=Weekend.2011.720p.BluRay.x264.AC3-HDChina&amp;tr=udp%3A%2F%2Ftracker.openbittorrent.com%3A80&amp;tr=udp%3A%2F%2Fopen.demonii.com%3A1337&amp;tr=udp%3A%2F%2Ftracker.coppersurfer.tk%3A6969&amp;tr=udp%3A%2F%2Fexodus.desync.com%3A6969","seeders":1,"leechers":0,"uploader":"tonioferah","files":1,"time":1333661626,"description":"After a drunken house party with his straight mates, Russell heads out to a gay club. Just before closing time he picks up Glen but what's expected to be just a one-night stand becomes something else, something special. \n\n____________________________________________\n\n\nFormat                           : Matroska\nFile size                        : 4.37 GiB\nDuration                         : 1h 36mn\nOverall bit rate                 : 6 468 Kbps\nEncoded date                     : UTC 2012-03-20 11:29:09\nWriting application              : mkvmerge v5.0.1 ('Es ist Sommer') built on Oct  9 2011 11:55:43\nWriting library                  : libebml v1.2.2 + libmatroska v1.3.0\n\nVideo\nID                               : 1\nFormat                           : AVC\nFormat/Info                      : Advanced Video Codec\nFormat profile                   : &lt;a class=&quot;__cf_email__&quot; href=&quot;/cdn-cgi/l/email-protection&quot; data-cfemail=&quot;98d0f1fff0d8d4acb6a9&quot;&gt;[email&amp;#160;protected]&lt;/a&gt;&lt;script cf-hash='f9e31' type=&quot;text/javascript&quot;&gt;\n/* &lt;![CDATA[ */!function(){try{var t=&quot;currentScript&quot;in document?document.currentScript:function(){for(var t=document.getElementsByTagName(&quot;script&quot;),e=t.length;e--;)if(t[e].getAttribute(&quot;cf-hash&quot;))return t[e]}();if(t&amp;&amp;t.previousSibling){var e,r,n,i,c=t.previousSibling,a=c.getAttribute(&quot;data-cfemail&quot;);if(a){for(e=&quot;&quot;,r=parseInt(a.substr(0,2),16),n=2;a.length-n;n+=2)i=parseInt(a.substr(n,2),16)^r,e+=String.fromCharCode(i);e=document.createTextNode(e),c.parentNode.replaceChild(e,c)}}}catch(u){}}();/* ]]&gt; */&lt;/script&gt;\nFormat settings, CABAC           : Yes\nFormat settings, ReFrames        : 9 frames\nCodec ID                         : V_MPEG4/ISO/AVC\nDuration                         : 1h 36mn\nBit rate                         : 6 073 Kbps\nWidth                            : 1 280 pixels\nHeight                           : 692 pixels\nDisplay aspect ratio             : 1.850\nFrame rate                       : 23.976 fps\nColor space                      : YUV\nChroma subsampling               : 4:2:0\nBit depth                        : 8 bits\nScan type                        : Progressive\nBits/(Pixel*Frame)               : 0.286\nStream size                      : 4.03 GiB (92%)\nLanguage                         : English\n\nAudio\nID                               : 2\nFormat                           : AC-3\nFormat/Info                      : Audio Coding 3\nMode extension                   : CM (complete main)\nCodec ID                         : A_AC3\nDuration                         : 1h 36mn\nBit rate mode                    : Constant\nBit rate                         : 384 Kbps\nChannel(s)                       : 2 channels\nChannel positions                : Front: L R\nSampling rate                    : 48.0 KHz\nBit depth                        : 16 bits\nCompression mode                 : Lossy\nStream size                      : 266 MiB (6%)\nLanguage                         : English\n\nText\nID                               : 3\nFormat                           : PGS\nMuxing mode                      : zlib\nCodec ID                         : S_HDMV/PGS\nCodec ID/Info                    : The same subtitle format used on BDs/HD-DVDs\nLanguage                         : English\n","torrent":{"xt":"urn:btih:0c0eb503a07ddef4bff9547b5f700af3b962957d","amp;dn":"Weekend.2011.720p.BluRay.x264.AC3-HDChina","amp;tr":["udp%3A%2F%2Ftracker.openbittorrent.com%3A80","udp%3A%2F%2Fopen.demonii.com%3A1337","udp%3A%2F%2Ftracker.coppersurfer.tk%3A6969","udp%3A%2F%2Fexodus.desync.com%3A6969"],"infoHash":"0c0eb503a07ddef4bff9547b5f700af3b962957d","infoHashBuffer":{"type":"Buffer","data":[12,14,181,3,160,125,222,244,191,249,84,123,95,112,10,243,185,98,149,125]},"announce":[],"urlList":[]}}